<svg width="66" height="66" viewBox="0 0 66 66" fill="none" xmlns="http://www.w3.org/2000/svg">
<g filter="url(#filter0_d_982_1181)">
<rect x="5" y="5" width="56" height="56" rx="10" fill="white" shape-rendering="crispEdges"/>
<path fill-rule="evenodd" clip-rule="evenodd" d="M44.5554 30.2056H20.79C20.238 30.2056 19.79 29.7576 19.79 29.2056C19.79 28.6536 20.238 28.2056 20.79 28.2056H44.5554C45.1074 28.2056 45.5554 28.6536 45.5554 29.2056C45.5554 29.7576 45.1074 30.2056 44.5554 30.2056" fill="#8456EC"/>
<path fill-rule="evenodd" clip-rule="evenodd" d="M38.6015 35.4126C38.0495 35.4126 37.5962 34.9646 37.5962 34.4126C37.5962 33.8606 38.0375 33.4126 38.5895 33.4126H38.6015C39.1535 33.4126 39.6015 33.8606 39.6015 34.4126C39.6015 34.9646 39.1535 35.4126 38.6015 35.4126" fill="#8456EC"/>
<path fill-rule="evenodd" clip-rule="evenodd" d="M32.6845 35.4126C32.1325 35.4126 31.6792 34.9646 31.6792 34.4126C31.6792 33.8606 32.1205 33.4126 32.6725 33.4126H32.6845C33.2365 33.4126 33.6845 33.8606 33.6845 34.4126C33.6845 34.9646 33.2365 35.4126 32.6845 35.4126" fill="#8456EC"/>
<path fill-rule="evenodd" clip-rule="evenodd" d="M26.7557 35.4126C26.2037 35.4126 25.749 34.9646 25.749 34.4126C25.749 33.8606 26.1917 33.4126 26.7437 33.4126H26.7557C27.3077 33.4126 27.7557 33.8606 27.7557 34.4126C27.7557 34.9646 27.3077 35.4126 26.7557 35.4126" fill="#8456EC"/>
<path fill-rule="evenodd" clip-rule="evenodd" d="M38.6015 40.595C38.0495 40.595 37.5962 40.147 37.5962 39.595C37.5962 39.043 38.0375 38.595 38.5895 38.595H38.6015C39.1535 38.595 39.6015 39.043 39.6015 39.595C39.6015 40.147 39.1535 40.595 38.6015 40.595" fill="#8456EC"/>
<path fill-rule="evenodd" clip-rule="evenodd" d="M32.6845 40.595C32.1325 40.595 31.6792 40.147 31.6792 39.595C31.6792 39.043 32.1205 38.595 32.6725 38.595H32.6845C33.2365 38.595 33.6845 39.043 33.6845 39.595C33.6845 40.147 33.2365 40.595 32.6845 40.595" fill="#8456EC"/>
<path fill-rule="evenodd" clip-rule="evenodd" d="M26.7557 40.595C26.2037 40.595 25.749 40.147 25.749 39.595C25.749 39.043 26.1917 38.595 26.7437 38.595H26.7557C27.3077 38.595 27.7557 39.043 27.7557 39.595C27.7557 40.147 27.3077 40.595 26.7557 40.595" fill="#8456EC"/>
<path fill-rule="evenodd" clip-rule="evenodd" d="M38.0576 24.7213C37.5056 24.7213 37.0576 24.2733 37.0576 23.7213V19.3333C37.0576 18.7813 37.5056 18.3333 38.0576 18.3333C38.6096 18.3333 39.0576 18.7813 39.0576 19.3333V23.7213C39.0576 24.2733 38.6096 24.7213 38.0576 24.7213" fill="#8456EC"/>
<path fill-rule="evenodd" clip-rule="evenodd" d="M27.2871 24.7213C26.7351 24.7213 26.2871 24.2733 26.2871 23.7213V19.3333C26.2871 18.7813 26.7351 18.3333 27.2871 18.3333C27.8391 18.3333 28.2871 18.7813 28.2871 19.3333V23.7213C28.2871 24.2733 27.8391 24.7213 27.2871 24.7213" fill="#8456EC"/>
<mask id="mask0_982_1181" style="mask-type:alpha" maskUnits="userSpaceOnUse" x="19" y="20" width="27" height="27">
<path fill-rule="evenodd" clip-rule="evenodd" d="M19.6665 20.4387H45.6665V46.9999H19.6665V20.4387Z" fill="white"/>
</mask>
<g mask="url(#mask0_982_1181)">
<path fill-rule="evenodd" clip-rule="evenodd" d="M27.0278 22.4387C23.5705 22.4387 21.6665 24.2827 21.6665 27.6307V39.6961C21.6665 43.1174 23.5705 45.0001 27.0278 45.0001H38.3052C41.7625 45.0001 43.6665 43.1521 43.6665 39.7974V27.6307C43.6718 25.9841 43.2292 24.7041 42.3505 23.8241C41.4465 22.9174 40.0532 22.4387 38.3172 22.4387H27.0278ZM38.3052 47.0001H27.0278C22.4878 47.0001 19.6665 44.2014 19.6665 39.6961V27.6307C19.6665 23.1934 22.4878 20.4387 27.0278 20.4387H38.3172C40.5958 20.4387 42.4798 21.1214 43.7665 22.4107C45.0158 23.6654 45.6732 25.4694 45.6665 27.6334V39.7974C45.6665 44.2401 42.8452 47.0001 38.3052 47.0001V47.0001Z" fill="#8456EC"/>
</g>
</g>
<defs>
<filter id="filter0_d_982_1181" x="0" y="0" width="66" height="66" filterUnits="userSpaceOnUse" color-interpolation-filters="sRGB">
<feFlood flood-opacity="0" result="BackgroundImageFix"/>
<feColorMatrix in="SourceAlpha" type="matrix" values="0 0 0 0 0 0 0 0 0 0 0 0 0 0 0 0 0 0 127 0" result="hardAlpha"/>
<feOffset/>
<feGaussianBlur stdDeviation="2.5"/>
<feComposite in2="hardAlpha" operator="out"/>
<feColorMatrix type="matrix" values="0 0 0 0 0 0 0 0 0 0 0 0 0 0 0 0 0 0 0.1 0"/>
<feBlend mode="normal" in2="BackgroundImageFix" result="effect1_dropShadow_982_1181"/>
<feBlend mode="normal" in="SourceGraphic" in2="effect1_dropShadow_982_1181" result="shape"/>
</filter>
</defs>
</svg>
