<svg width="66" height="66" viewBox="0 0 66 66" fill="none" xmlns="http://www.w3.org/2000/svg">
<g filter="url(#filter0_d_982_1190)">
<rect x="5" y="5" width="56" height="56" rx="10" fill="white" shape-rendering="crispEdges"/>
<path fill-rule="evenodd" clip-rule="evenodd" d="M33.3343 28.3335C32.0476 28.3335 31.001 29.3802 31.001 30.6682C31.001 31.9548 32.0476 33.0002 33.3343 33.0002C34.621 33.0002 35.6676 31.9548 35.6676 30.6682C35.6676 29.3802 34.621 28.3335 33.3343 28.3335M33.3343 35.0002C30.945 35.0002 29.001 33.0575 29.001 30.6682C29.001 28.2775 30.945 26.3335 33.3343 26.3335C35.7236 26.3335 37.6676 28.2775 37.6676 30.6682C37.6676 33.0575 35.7236 35.0002 33.3343 35.0002" fill="#8456EC"/>
<mask id="mask0_982_1190" style="mask-type:alpha" maskUnits="userSpaceOnUse" x="22" y="19" width="23" height="27">
<path fill-rule="evenodd" clip-rule="evenodd" d="M22.3335 19.6667H44.3328V45.6667H22.3335V19.6667Z" fill="white"/>
</mask>
<g mask="url(#mask0_982_1190)">
<path fill-rule="evenodd" clip-rule="evenodd" d="M33.333 21.6667C28.3703 21.6667 24.333 25.7427 24.333 30.7507C24.333 37.1227 31.8317 43.3307 33.333 43.6614C34.8343 43.3294 42.333 37.1214 42.333 30.7507C42.333 25.7427 38.2957 21.6667 33.333 21.6667V21.6667ZM33.333 45.6667C30.941 45.6667 22.333 38.2641 22.333 30.7507C22.333 24.6387 27.2677 19.6667 33.333 19.6667C39.3983 19.6667 44.333 24.6387 44.333 30.7507C44.333 38.2641 35.725 45.6667 33.333 45.6667V45.6667Z" fill="#8456EC"/>
</g>
</g>
<defs>
<filter id="filter0_d_982_1190" x="0" y="0" width="66" height="66" filterUnits="userSpaceOnUse" color-interpolation-filters="sRGB">
<feFlood flood-opacity="0" result="BackgroundImageFix"/>
<feColorMatrix in="SourceAlpha" type="matrix" values="0 0 0 0 0 0 0 0 0 0 0 0 0 0 0 0 0 0 127 0" result="hardAlpha"/>
<feOffset/>
<feGaussianBlur stdDeviation="2.5"/>
<feComposite in2="hardAlpha" operator="out"/>
<feColorMatrix type="matrix" values="0 0 0 0 0 0 0 0 0 0 0 0 0 0 0 0 0 0 0.1 0"/>
<feBlend mode="normal" in2="BackgroundImageFix" result="effect1_dropShadow_982_1190"/>
<feBlend mode="normal" in="SourceGraphic" in2="effect1_dropShadow_982_1190" result="shape"/>
</filter>
</defs>
</svg>
